<?xml version="1.0" encoding="UTF-8" standalone="no"?>
<svg xmlns="http://www.w3.org/2000/svg" height="1303.7" width="1600.1" version="1.1" viewBox="0 0 1600.0687 1303.6803">
<path d="m794.39 7.9921-2.52 0.0137c-8.83 0.0491-17.82 0.3072-27 0.8398-11.2 0.6497-22.46-0.525-33.97-0.0019-97.26 4.4182-188.19 27.899-259.72 61.177-39.81 18.52-77.04 32.399-110.24 54.139-34.92 22.86-67.61 49.24-93.88 78.78-65.41 6.83-100.81 52.13-132.57 92.63-4.51 5.76-10.74 11.13-15.04 17.06-6.29 8.65-9.93 18.69-16 26.99-10.608 14.53-22.659 27.25-33.962 41.96-22.834 29.72-45.752 78.4-49.293 122.19-1.08 0.85-1.928 1.87-2.326 2.98-0.518 1.46-0.587 2.89-0.646 4.23-0.119 2.68-0.165 4.84-1.625 6.46l-0.51 0.56-0.008 0.76c-0.224 22.45-7.9561 44.17-6.998 71.08 0.3388 9.5 2.75 18.94 2.998 27.98 0.967 35.23 3.379 63.47 13.125 89.64 12.898 34.62 27.826 64.77 45.193 91.38l0.092 0.14 0.115 0.12c29.035 31.43 66.445 61.43 125.48 60.64 8.11-0.11 16.13-2.22 23.92-2 25.77 0.72 53.68 15.75 83.03 15.99 33.5 0.28 64.94-14.69 83.47-34.63 2.03-2.18 3.05-4.81 4.26-6.78 0.27-0.44 0.58-0.71 0.85-1.07-6.73 21.86-12.8 47.62-14.4 72.8-1.72 27.11 1.65 53.43 15.18 72.82 8.2 11.74 18.89 17.71 30.63 24.53 39.91 23.4 89.51 40 154.13 35.3 15.17-1.1 21.81-6.5 33.29-9 11.18-2.5 24.93-2.1 38-5 22.68-5.1 53.27-17.5 76.32-27.13 9.49-3.96 23.68-10.99 35.17-17.08 8.24-4.37 16.14-10.49 23.39-13.84 3.62-1.68 7.03-2.65 10.17-2.54s6.08 1.22 9.13 4.07c7.74 7.25 16.45 20.26 21.54 31.37 4.67 10.15 7.35 22.75 13.07 33.15 5.49 9.9 14.99 18.7 26.95 23.8l-0.1 0.2 1.9 0.7s10.98 4.1 17.86 4.9c3.36 0.4 8.87 0.1 13.87-0.1 3.87-0.2 6.19-0.4 7.49-0.5 30.96 65.9 83.33 110.4 141.5 148.6 32.8 26.8 60.4 59.2 92.9 86.9l3.6 3.1-0.3-4.8c-0.2-4-2.5-7.2-5.1-9.7s-5.5-4.6-7.4-6.5c-34.1-34.1-68-70.1-110.3-95.2-30.16-22.7-63.14-54.9-86.49-88.5-8.24-11.9-20.27-24.3-22.69-35.3-1.72-7.8-0.1-13.3 3.58-17.4 3.68-4 9.68-6.8 16.86-8.2 1.14-0.3 3.41 0.4 5.99 0.5 1.29 0 2.74-0.1 4.12-0.8 1.38-0.8 2.54-2.1 3.33-3.9l1.16-2.7-2.88-0.1h-0.03 0.03c-0.01 0-0.08-0.1-0.32-0.2-0.53-0.4-1.84-1-3.14-0.8l-0.03 0.1h-0.03c-8.19 1.7-17.12 2.8-24.18 6.5-6.79 3.5-11.61 9.9-11.4 20.3-0.79 0.5-1.84 0.9-3.28 1.1-1.73 0.2-3.78 0.3-5.81 0.6-4.21 0.2-8.61 0.2-10.24 0-2.97-0.3-8.39-1.9-12.15-3.1-10.15-4.3-18.32-10.6-25.87-17.7-10.95-22.6-19.08-50.84-36.23-68.18-2.05-2.07-4.77-3.47-7.06-4.93-1.54-0.98-2.63-1.96-3.45-2.92 38.34-18.65 75.49-42.67 111.07-60.86-1.21 6.09-0.59 11.16 1.61 15.19 2.72 5.01 7.51 8.34 12.92 10.91 10.38 4.93 23.35 7.47 31.24 12.13-3.27 16.22-0.09 29.04 5.88 40.04 6.17 11.35 15.11 20.89 22.75 31.02 5.03 6.7 9.87 13.7 14.59 19.5 4.75 5.9 9.25 10.7 14.15 13.1 13.6 6.7 28.8 2.5 42.4-1.6-4.8 11.4-11.8 22.4-9.5 37.1 1.4 9.3 6.8 15.7 13.4 20.5 6.3 4.7 13.6 8 19.8 11.6 5.7 30.9 30.6 59.2 64.8 57.6 12.9-0.6 23.6-5.8 34.5-11.5 1.3 1.5 2.1 3.2 2.6 5.4 0.6 2.6 0.8 5.7 2 8.8 3.6 9.9 10.5 18.2 16.2 26.4 2.6 3.9 5 9 8.2 13.4 3.1 4.4 7.2 8.4 13.1 9.5l4.6 0.8-2.6-3.9c-9.6-14.7-27.5-31.9-32.5-51.4 10.5 7.2 25.1 12.6 41.6 15.4 18.8 3.2 39.7 3.3 58.7-0.9 17.8-4 37.4-13.1 56.4-22.2 20.3-9.7 40.2-17.9 50.7-31.6 9.4-12.2 14.3-30.5 20.9-40.7 9.5-5.5 22.3-10.3 32.2-17.9 9.7-7.3 16.4-17.9 13.5-33.4 9.2-4.3 13.1-12.2 15.4-20.9 2.5-9.24 3.6-19.64 8.2-29.42 2.6-5.41 6.7-9.69 9-15.07 13.1-30.73 0-62.07-17.3-82.8 3.6-4.44 4.6-10.37 3.9-16.04-0.7-5.53-2.8-10.77-5.7-14.65 5-4.38 8.8-8.88 10.3-15.87 1.7-8.65 0.5-16.03-2.9-22.12s-8.8-10.86-15.1-14.73c-9.7-6-21.4-9.64-32.2-12.73 22.3-2.72 42.7-6.63 64.7-11.87 22-5.26 49.8-10.38 63.9-24.53 15.4-15.42 24.7-48.76 25.6-75.33 1.6-47.17-7.4-91.67-20.1-125.76-12.1-32.17-23.6-63.1-36.1-92.07-6.6-15.43-11.1-32.28-22.5-42.68l-0.4-0.43-0.6-0.08c-4.2-0.56-8.1-1.46-11.9-2.46 3.9-13.99 1.1-26.03-4.6-36.82-5.9-11.31-14.8-21.43-22.2-31.88-11.9-16.89-21.8-29.79-33-45.98-11.2-16.31-20.2-32.38-32-47.11-8.9-11.08-16.4-23.3-26-33.18-8.8-9.11-19.6-16.12-34.6-18.1 3.6-4.69 4.7-10.33 3.9-15.77-1-6.65-4.4-13.07-8.3-17.95-13-15.91-34.6-28.8-53.5-41.4-19.4-12.97-38.3-24.356-62.4-33.207-22.5-8.259-46.9-14.802-71-23.014-13.2-4.486-29.5-10.952-45.7-14.963-15-3.704-29.9-5.304-42.6-1.076 0.6-4.209 0.9-8.584-1.7-12.236l-0.2-0.192-0.2-0.156c-11-9.41-27-13.435-44.2-15.728-17.3-2.293-35.78-2.809-51.8-4.733l-0.15-0.017-0.15 0.004c-61.14 1.675-114.76-7.8776-175.52-7.811l0.01-0.0488zm-1.41 5.8498c37.75-0.082 78.2 5.153 111.82 7.992 53.79 4.542 115.5-1.503 156.5 18.48 2.2 5.222 1.5 8.684-0.6 12.141-2.1 3.609-5.9 7.031-9.3 11.109l2.5 3.04c10.7-5.666 17.4-13.688 31.1-13.768 5.4-0.032 10.1 2.695 16.6 3.963 10.9 2.164 21 2.684 30.7 5.933 8 2.677 15.1 8.661 23.9 11.975 19.1 7.152 39.2 10.319 60.2 16.055 20 5.443 42.2 20.418 61.5 31.788 19.7 11.62 39.7 24.81 53.6 38.69 6.3 6.26 14.4 14.94 13.4 27.89-5.5 8.13-17.4 10.89-27.1 16.99l-2.9 1.85 3.1 1.62c2.6 1.36 5.3 1.4 7.9 0.79s5.1-1.8 7.6-3.02c5.2-2.46 10.7-5.08 17.2-4.55 11.1 0.89 20.3 8.78 28.7 18.93 8.4 10.16 15.7 22.4 23 31.34 16.2 19.96 32.3 45.65 47.8 68.84 5.1 7.59 11.6 14.34 17.1 22.04 4.8 6.8 11.4 15.19 17.1 23.63 5.6 8.43 10.4 16.97 11.5 23.55 1.6 9.06 0.2 13.89-2.8 17.37-2.9 3.49-7.7 5.75-13.1 8.5l-5.5 2.79 6.1 0.97c6.7 1.06 12-1.39 16.6-2.69s8.2-1.82 13.5 2.29c4 3.18 8.7 12.53 12.7 22.61 4.1 10.09 7.6 20.89 10.7 27.64 8 17.57 15.7 38.81 20.9 52.86 10 26.93 19 50.62 24 80.53l-2.3-1.05c-14.7-6.89-27.8-15.19-37.2-26.95-9.5-11.76-15.4-27.01-15.6-48.25v-0.84l-0.6-0.58c-4.9-4.72-9.5-10.04-14.8-14.8-5.6-9.17-10.9-18.67-16.8-27.65-2.3-5.05-3.6-11.46-5-17.89-1.3-5.84-2.7-11.67-5.3-16.64 1.8-1.64 2.8-3.92 3.3-6.26 0.7-2.95 0.9-6.17 1.2-9.09l0.1-1.31-1.1-0.65c-23.2-13.11-41.4-30.14-45-62.47l-0.2-1.48-1.4-0.27c-9-1.68-17.1-5.18-22.5-10.65s-8.2-12.84-6.9-23.12l0.2-1.48-1.4-0.61c-21.6-9.64-34.4-28.49-50-45.38-15.3-16.61-33.6-31.11-65.2-31.69-2.8-10.8-10.3-16.95-17.2-22.74-7.1-5.97-13.6-11.59-15.3-22.22 0.1-0.47 0.2-0.7 0.6-0.99 0.5-0.34 1.3-0.67 2.3-1.06s2.1-0.83 3.2-1.77c1-0.94 1.8-2.5 1.8-4.27v-1.18l-1-0.59c-5.8-3.32-11.7-3.74-17.5-3.29-5.7 0.46-11.3 1.74-16.6 2.03-55.7 3.05-117.8-9.94-169.2-1.98-23.1 3.58-44.5 10.49-63.96 17.75 13.06-17.17 25.56-35.39 31.26-60.32l0.5-2.34-2.3-0.1c0 0.02-0.1 0-0.1 0h0.1c0-0.02-0.1-0.08-0.4-0.26-0.5-0.37-1.8-0.94-3.1-0.72l-1.6 0.29v1.08c-0.2 0.08-0.4 0.14-0.8 0.36-0.4 0.33-1 1-1.2 1.8l0.1-0.28c-10.6 27.21-31.78 53.11-56.44 74.19-34.57 29.55-80.02 62.45-136.58 59.52l-2-0.11-0.1 2.01c-1.57 31.97-12.99 53.73-29.06 71.14s-36.88 30.4-57.07 44.29l-0.95 0.66 0.09 1.15c0.12 1.42-0.06 3.42-0.06 5.4-0.01 1.97 0.01 4.11 1.6 5.81l0.89 0.95 1.23-0.43c25.2-8.8 44.85-24.58 61.74-41.47 17.45-17.44 28.65-38.89 41-60.85 6.39-2.63 14.61-6.91 22.73-9.4 7.91-2.44 15.23-2.92 20.6 0.84-3.11 17.34-13.77 32.25-15.73 48.76l-0.23 1.88 1.86 0.33c2.57 0.45 4.85 0.02 6.58-1.08 1.73-1.09 2.86-2.72 3.67-4.38 1.62-3.32 2.24-7.14 2.93-8.7 7.64-17.35 18.59-29.4 28.79-43.64 22.21-30.99 51.36-51.4 89.11-67.32 26.9-11.3 61.7-19.68 96.4-21.84 20.7-1.29 42.1 1.4 64.7 3 9.9 0.7 21.5-0.84 31.8 0.98 17.1 3.03 46 15.17 60.2 24.68 10.3 6.86 17.6 20.35 16.1 36.15-1.6 17.36-13.4 43.21-20.8 58.3-9.2 18.85-23.6 34.38-30 49.07l-2.8 6.29 5.7-3.82c20.2-13.55 35.6-46.97 47.7-72.81 2.6-5.5 4.3-13.1 6.4-20 2.1-6.91 4.8-12.97 8-15.2 5.4-3.79 11.8-3.26 19.1-1.17 7 2.03 14.5 5.5 21.7 7.29 14 11.19 21.1 23.29 35.6 37.65 3.7 3.71 9.2 7.76 14 11.75 4.9 3.98 9.2 8.04 10.6 10.74 0.7 1.26 0.9 2.93 1 4.81 0.2 1.87 0.2 3.93 0.9 5.95 5.2 14.35 18.4 23.17 31.1 28.65 1.5 15.38 7.8 26.21 16 34.87 8.2 8.67 18 15.31 26.8 22.76-0.9 44.44 19.3 68.43 39 91.72 0.1 3.68-0.3 7.93 0 11.91-12.3-7.87-27.5-12.2-41.9-12.1-16.1 0.1-31.5 5.72-40.7 18.31-2 2.75-5.1 7.09-6.8 11.89-1.7 4.79-2 10.46 1.9 14.66l1.5 1.51 1.4-1.48c3.2-3.19 5.5-7.76 8-12.1s5.3-8.39 8.7-10.62c8.4-5.5 24-7.37 30.7-6.68 20.5 2.09 35.5 16.99 51.3 31.42 15.7 14.43 32.4 28.38 56 26.57l3.5-0.26c1.6 10.53 2.8 21.84 3.4 34.36 1.3 29.01-0.2 52.9-6.9 73.26-6.8 20.37-18.6 31.45-34.9 39.02-16.2 7.57-36.9 11.42-60.6 16.65-46.1 10.17-86.5 10.84-134.7 12.96-43.5 1.91-82.3 15.81-124.2 22.02-38.4 5.69-77.7 7.93-115.8 10.98-58.7 4.71-109.66 17.72-150.86 42.27-13.34 7.94-25.02 17.35-37.99 24.99-23.06 13.58-46.85 26.27-70 40-23.13 13.72-47.99 25.17-71.91 37.95-45.46 24.29-93.05 47.94-147.53 56.84 34.11-19.87 55.85-51.85 80.02-80.79l-2.35-3.11c-11.8 5.23-17.96 17.51-25.7 26.52-19.68 22.89-40.18 45.28-70.33 59.48-31.71 15-91.13 12.4-127.48-0.1-24.56-8.4-46.03-18.8-66.54-29.76-30.82-23.07-38.61-69.4-28.14-119.9 5.43-26.17 17.28-53.76 25.94-80.78 9.17-28.6 20.81-53.18 37.33-68.02 16.88-9.02 27.18-24.43 45.58-32.76 9.48-4.29 20.36-4.63 30.93-8.97 13.35-5.48 27.39-12.33 36.86-22.62 9.53 3.16 17.94 2.52 25.78 0.08 8.21-2.55 15.91-6.85 24.38-10.47 20.46-8.73 38.39-16.58 57.18-27.09 16.47-9.21 30.82-16.5 40.14-31.81 5.22-0.14 9.81-0.67 13.79-2.2 4.27-1.64 7.87-4.42 10.74-8.6 2.56-3.73 3.19-8.34 4.33-10.37 0.58-1.02 0.84-1.26 1.62-1.3 0.79-0.05 2.55 0.42 5.3 2.22l0.56 0.36 0.66-0.04c58.09-3.63 100.54-23.73 120.94-65.73 10.45 5.86 24.73 8.47 39.33 8.28 15.45-0.19 31.1-3.61 42.91-10.02 2.41 3.18 4.59 6.88 7.22 10.44-4.32 5.74-9.03 12.28-7.53 24.28l0.19 1.56 1.56 0.18c7.17 0.83 12.39-0.76 16.14-3.77 3.38-2.72 5.45-6.43 7.26-10.18 6.5 0.43 11.5-0.82 14.86-3.21 3.61-2.56 5.29-6.46 4.69-10.14-0.6-3.67-3.42-6.93-7.8-8.5-3.98-1.42-9.29-1.43-15.7 0.42-1.37-3.67-3.28-7-6.09-9.57 32.55-24.4 59.81-65.96 50.91-121.89 3.1-9.87 4-22.53 4-33.13l-0.1-2.35-2.3 0.39c-2.1 0.34-3.7 1.4-4.9 2.7-1.1 1.31-1.8 2.8-2.4 4.23-0.9 2.23-1.7 4.03-2.7 5.3-0.6-0.6-1.1-1.37-1.8-2.45-1-1.72-2.5-4-5.3-4.75l-0.3-0.06h-0.2c-2.69-0.01-4.52 0.97-5.91 1.56-1.4 0.58-2.41 0.95-4.74 0.48l-5.42-1.09 3.47 4.3c16.2 20.05 17 57.96 5.71 84.97 0.25-0.59-0.11-0.04-0.99 0.4-0.87 0.44-2.21 0.88-2.98 2.53-0.72 1.55-0.37 3.04-0.17 3.91 0.2 0.88 0.17 1.1 0.2 1.03-8.38 16.76-22.28 33.66-40.4 44.25-18.02 10.52-40.16 14.87-65.72 6.86-2.48-2.45-4.65-5.53-7.51-8.32-2.98-2.9-6.86-5.39-12.39-5.89l-1.65-0.15-0.45 1.6c-14.76 51.77-69.39 81.06-134.66 67.58l-3.2-0.66 0.87 3.15c2.54 9.2 0.21 14.26-4.61 17.79s-12.59 5.19-20.58 5.68l-1.56 0.09-0.28 1.54c-2.03 10.97-9.94 19.83-20.86 27.5s-24.74 14.04-37.99 20.03c-9.85 4.46-18.87 8.64-28.97 12.99-9.14 3.94-18.32 7.89-26.36 8.88-8.04 0.98-14.71-0.67-20.23-8.22l-2.24-3.07-1.26 3.58c-5 14.21-20.75 23.83-39.18 26.9-18.43 3.06-39.24-0.49-53.68-11.81-9.3-7.29-18.27-20.29-24.77-34.66-6.5-14.36-10.56-30.11-10.46-42.74 0.03-4.11 2-8.84 4.06-13.35 2.05-4.51 4.3-8.71 3.93-12.84-0.36-3.95-3.05-6.07-4.83-7.36-0.89-0.65-1.56-1.18-1.87-1.61-0.32-0.42-0.45-0.68-0.32-1.56l0.61-4.08-3.58 2.05c-6.57 3.76-9.76 10.58-11.96 17.96-1.82-1.77-3.85-3.55-6.38-4.91-3.7-1.98-8.32-2.94-13.31-1.2l-1.33 0.46-0.02 1.4c-0.07 6.25 2.47 10.45 5.55 13.49 2.98 2.96 6.32 5.06 8.71 7.64 6.61 16.79 7.55 35.75 15.91 54.69 7.65 17.36 19.29 33.13 21.85 47.54 0.76 4.23-0.05 7.84-1.53 11.65-1.39 3.56-3.37 7.32-5.03 11.51-25 12.8-62.44 21.39-82.8 40.01-2.14 1.95-5.07 4.96-7 8.67-1.94 3.71-2.85 8.39-0.4 12.77l1 1.8 1.76-1.05c3.96-2.34 6.59-5.76 9.07-9.09 2.49-3.32 4.85-6.57 8.11-9.03 4.16-3.12 13.01-7.77 20.53-10.73 14.03-5.52 32.25-14.12 48.28-12.04-0.11 0.61-0.33 1.26-0.74 2-0.73 1.34-1.96 2.83-3.43 4.37-2.95 3.06-6.79 6.21-9.42 9.57-18.83 24.04-21.49 60.48-35.2 87.31-15.35 30.04-52.43 52.04-99.07 48.91-22.55-1.51-42.55-12.97-66.97-15-14.61-1.21-28.85 2.05-42 1-24.9-1.98-43.96-10.69-62.18-18.76-31.704-19.87-54.075-49.16-72.118-83.04-9.419-30.94-27.578-60.96-29.836-97.3-1.424-22.92-2.032-46-2.676-69.67 0.413 1.79 0.902 3.65 1.877 5.67 2.933 6.07 7.689 10.62 12.305 14.81s9.098 8.04 11.795 12.37c4.583 7.38 7.328 17.54 12.055 25.91 2.363 4.18 5.274 7.94 9.3 10.55 4.027 2.6 9.128 3.95 15.487 3.48l0.336-3.94c-9.813-2.44-14.886-7.77-18.967-14.8-4.082-7.03-6.928-15.76-11.776-24.24-3.189-5.59-8.175-9.74-12.822-13.72-4.647-3.97-8.934-7.77-11.119-12.18-7.772-15.69-4.483-36.34 0.156-56.66 7.476-32.75 31.042-66.39 60.327-90.9 28.716-24.03 56.856-50.76 93.126-58.57 2.38-0.51 6.01-0.92 8.6-0.95 3.98-0.05 9.52 1.68 14.83 3.37s10.3 3.47 14.55 2.58c2.33-0.48 4.23-2.03 6.1-3.96 1.86-1.92 3.68-4.29 5.48-6.76 3.61-4.94 7.3-10.3 10.26-12.67 5.89-4.71 14.01-9.3 22.16-11.46 8.14-2.16 16.15-1.92 22.43 2.53l1.88 1.34 1.05-2.06c10.81-21.03 21.99-42.76 37.98-58.91s36.65-26.83 67.18-25.99l0.84 0.02 0.61-0.59c7.32-7.13 11.4-16.92 16.33-25.42l0.02-0.04 0.02-0.04c19.32-36.74 68.5-72.69 118.73-85.98 10.18-2.7 24.12-4.8 37.19-4.56s25.21 2.93 31.93 9.1c1.62 1.48 2.73 3.78 4.09 6.4 1.25 2.4 2.88 5.01 5.48 7.13 10.65 30.08-5.1 65.78-12.14 90.43l-1.34 4.7 4.25-2.41c7.37-4.17 8.31-13.1 9.92-18.13 5.96-18.62 10.94-34.48 12.09-55.49 0.35-6.39-2.24-13.42-1.03-19.73 2.14-11.24 10.77-21.67 21.43-31.28 10.66-9.6 23.24-18.34 32.89-26.57 6.36-5.41 12.66-14.56 19-19.998 17.36-14.882 40.73-24.753 61.69-36.782l0.95-0.545 0.05-1.091c0.06-1.161 0.44-1.904 0.99-3.123 0.54-1.219 1.17-2.916 1.01-5.122l-0.33-4.418-2.61 2.676c-0.15-0.121-0.12-0.09-0.34-0.314-0.98-1.007-2.53-2.822-5.07-3.688l-0.59-0.199-0.59 0.166c-36.35 10.144-66.77 26.539-86.83 53.455-18.96 14.053-33.04 27.373-61.76 29.463-6.75 0.5-14.04-0.38-20.96 0-50.01 2.77-86.37 21.5-118.95 42.31-16.15 10.31-32.41 22-44.46 36.4-12.39 14.81-20.03 31.71-32.51 46.37-29.27 1.83-50.12 12.43-66.17 27.59-15.95 15.08-27.22 34.56-37.97 54.35-30.07-0.42-52.14 15.28-66.49 33.67-33.43-10.51-66.43 6.94-90.38 22.6-38.322 25.06-69.197 61.6-91.347 101.9 1.271-12.62 5.329-24.69 10.295-36.45v-0.01c5.782-13.7 11.234-28.3 17.92-40.83 13.101-24.55 33.142-44.82 49.842-67.75 33.02-45.32 62.5-94.98 112.31-121.4 14.31-7.59 29.22-13.12 49.12-13.76l0.85-0.03 0.56-0.62c24.83-27.18 53.18-52.08 86.6-73.66 32.48-20.97 67.65-37.92 105.71-54.848 81.93-36.435 170.8-62.078 275.25-66.822 17.67-0.803 37.24-0.959 54.9-0.998zm-88.83 22.767c-43.89 0.163-80 19.578-105.8 42.18-9.38-0.512-20.58-1.626-30.47-0.951-76.46 5.213-128.36 38.042-174.05 72.392-6.93 5.2-12.84 12.19-19.73 15.82-4.28 2.26-9.44 2.88-14.67 3.82s-10.65 2.28-14.82 6.55l-3.29 3.37 4.71 0.03c11.82 0.07 21.82-4.75 29.92-6.32-2.31 3.58-4.93 7.57-7.11 12.04-2.95 6.02-4.92 12.67-2.69 18.95l2.46 6.92 1.39-7.21c6.62-34.36 32.26-50.4 59.11-67.69 45.6-29.37 109.58-60.673 178.58-49.701l2.31 0.367 0.01-2.338c0-2.039-0.72-3.289-1.17-3.967 0.11-0.136 0.09-0.15 0.56-0.601l0.01-0.012 0.01-0.014c23.59-23.708 60.41-34.699 103.79-39.418l-0.11-3.984c-3.02-0.168-6-0.244-8.95-0.233zm282.49 3.87c-0.68 0.017-1.32 0.128-1.91 0.287-2.37 0.636-4.32 2.098-4.73 2.318-21.01 11.415-52.26 24.712-74.86 34.93l-0.35 0.162-0.27 0.283c-21.41 22.521-43.08 43.801-81.78 48.391l-1.51 0.17-0.23 1.51c-8.27 54.4-36.84 87.65-83.65 103.39l-1.3 0.44-0.06 1.37c-1.39 31.32-13.21 53.95-31.2 71.06-18 17.1-42.26 28.61-68.41 37.11l-1.83 0.6 0.53 1.85c5.31 18.7 0.37 34.37-9.19 47.4-9.56 13.04-23.83 23.26-36.83 30.28l-1.77 0.96 0.96 1.76c14.91 27.33 21.07 71.72 10.83 107.48-1.53 5.35-4.68 10.59-7.08 16.12s-4.03 11.55-1.89 18.05l0.56 1.71 1.76-0.38c8.35-1.81 13.37-8.33 16.51-15.77 3.13-7.43 4.61-15.98 6.02-22.77 6.73-32.27 6.64-66.49-7.55-97.8 23.62-19.4 46.12-38.89 47.52-79.26 47.66-19.54 85.5-49.81 96.82-106.07 26.44-16.07 50.3-33.5 65-61.3 8.49-16.05 12.99-30.53 20.64-47.17 17.41-2.22 27.36-8.26 40.6-16.04 17.42-10.23 26.6-25.767 40.97-33.98 12.47-7.123 25.67-11.136 38.38-16 12.7-4.863 24.93-10.615 35.07-21.359l1.48-1.57-1.68-1.358c-0.16-0.136-0.13-0.113-0.27-0.234 0.37-0.432 0.7-0.952 0.91-1.57l0.33-0.969-0.59-0.832c-1.07-1.506-2.44-2.498-3.86-2.926-0.71-0.214-1.42-0.291-2.09-0.273zm3.8 5.287c0.03 0.023 0.06 0.043 0.09 0.097-0.01-0.009-0.06-0.048-0.1-0.086 0-0.004 0-0.007 0.01-0.011zm219.46 64.064c-15.5 0.53-28.8 6.55-41.2 13.26-12.4 6.72-24.1 14.12-36.3 17.82-7.2 2.16-16.4 1.31-24.6 7.3l-5.6 4.04 6.9-0.43c27.4-1.73 43.7-12.03 61.7-21.21 13-6.6 25.2-11.6 39.8-16.9l-0.7-3.88zm-671.74 95.97c-0.16 0-0.33 0.02-0.49 0.05l-1.06 0.18-0.43 0.99c-8.36 19.29-17.53 40.78-26.03 63.08-9.46 24.79-22.18 51.8-23.13 79.63-1.02 29.81 5.48 62.22 4.09 94.9-8.82-4.48-20.8-7.94-33.52-9.32-13.5-1.46-27.54-0.53-38.85 4.13-23.24-32.03-56.4-59.93-109.74-58.64l-0.42 3.94c43.6 10.31 78.58 28.56 95.9 64.44-24.15 16.91-41.83 38.7-49.39 70.13-4.66 19.39-9.3 39.55-18.64 57.14-12.86 10.13-26.44 16.9-42.33 16.32-28.67-1.04-56.43-25.8-75.91-39.63l-4.97-3.52 1.91 5.78c4.52 13.68 13.7 26.58 26.65 36.93 11.31 9.04 28.69 15.33 40.29 23.92 5.8 4.29 10.06 9.04 11.68 14.76 1.62 5.68 0.75 12.57-4.4 21.62-6.79 8.51-17.8 12.84-29.55 17.36-11.8 4.53-24.31 9.28-33.27 19.44-19.76 22.42-26.34 56.88-9.21 85.35 7.8 12.96 25.95 24.55 45.08 20.93l6.5-1.23-6.09-2.58c-14.94-6.32-25.22-11.09-32.04-23.14-12.58-22.25-8.21-42.63 3.82-58.78 11.82-15.9 31.27-27.35 48.95-31.04 9.67 8.64 27.56 13.06 43.87 12.09 8.39-0.5 16.37-2.46 22.54-6.34s10.5-9.87 11.06-17.79l0.25-3.54-3.16 1.62c-6.86 3.53-10.92 9.5-19.38 10.8-12.66 1.94-26.2-3.26-34.22-9.09 8.1-6.37 11.76-16.9 15.96-25.9 2.3-4.94 4.76-9.42 7.95-12.61 3.19-3.2 7.02-5.22 12.68-5.42 7.83-0.27 13.58 2.63 19.65 6.23 6.07 3.61 12.37 7.95 20.86 9.73l2.08 0.44 0.31-2.1c0.68-4.5-0.97-7.83-2.96-10.2-1.99-2.38-4.16-4.09-5.27-6.07-8.72-15.53-11.82-39.32-10.36-62.45 1.47-23.12 7.53-45.61 16.27-58.43 9.05-13.28 26.94-26.3 46.38-32.68s40.22-6.18 55.71 6.12c11.84 9.4 14.82 26.04 14.9 45.79s-2.73 42.27-1.66 62.74l0.05 0.96 0.8 0.56c3.05 2.16 6.78 4.2 12.09 4.37l1.83 0.06 0.22-1.83c0.48-4.2 2.69-9.9 4.82-15.49 2.14-5.6 4.26-11.06 4.19-15.77-0.41-26.85-5.38-65.31-9.01-99.17-1.78-16.54 0.55-31.08 0.01-46.85-0.31-8.88-2.59-21.72-4.14-35.32s-2.35-27.9 0.09-39.18c8.83-40.76 23.97-86.79 34.97-124.85l0.7-2.44-2.51-0.11c0.02 0.02-0.03 0-0.03 0h0.03c-0.01-0.02-0.07-0.08-0.32-0.26-0.46-0.32-1.52-0.8-2.65-0.76zm-280.42 19.95-3.69 1.19c0.92 15.18-2.35 29.77-12.95 37.08-31.4 8.33-52.69 27.09-67.34 52.1-18.42 4.59-32.77 13.11-44.16 25.32-10.27 11.02-14.4 26.88-22.18 38.22-5.45 7.95-11.529 11.2-16.022 18.04l-2.851 4.34 5.025-1.31c10.928-2.84 17.298-10.44 22.048-19 4.74-8.56 8.09-18.17 13.12-25.83 10.64-16.23 28.62-29.1 48.52-31.11l1.02-0.1 0.51-0.88c8.25-14.2 19.04-28.57 33.47-38.92 14.44-10.36 32.48-16.77 55.64-15.09 3.77 0.28 8.05 1.69 12.13 2.51 2.04 0.41 4.05 0.67 6.02 0.46 1.97-0.22 3.95-1 5.45-2.58l1.86-1.97-2.43-1.2c-5.49-2.72-13.27-3.64-21.21-4.02-6.4-0.31-12.24-0.18-17.48-0.15 2.83-3.89 5.51-9.04 7.17-14.65 2.19-7.41 2.58-15.71-1.67-22.45zm817.36 50.04c-0.2 0-0.3 0.02-0.5 0.05l-0.4 0.07-0.4 0.24c-1.2 0.82-1.8 2.03-2.2 3.08-0.3 1.05-0.5 2.05-0.8 2.83-0.2 0.79-0.4 1.3-0.6 1.49-0.2 0.12-0.5 0.13-0.7 0.17-1-0.6-1.8-1.68-2.9-3.15-1.3-1.65-3.4-3.59-6.5-3.76l-2.2-0.12 0.1 2.19c0.1 5.03 2.5 9.29 4.9 13.45 2.5 4.16 5 8.27 6.1 12.94 4.1 16.99 10.3 38.09 13.7 58.89 3.2 20.14 3.6 39.9-3 55.25-0.5-0.16-0.8-0.28-1.5-0.43-1.3-0.28-3.3 0.02-4.7 1.43l-1.1 1.13 0.9 1.33c3.1 4.88 8.3 7.36 14.1 8.86l2.2 0.54 0.3-2.15c0.3-1.39 0.1-2.65-0.3-3.68-0.5-1.03-1.2-1.74-1.8-2.25-1-0.83-1.3-1.14-1.6-1.58 11.7-22.82 6.7-48.16 0.6-72.81-6.3-25.06-13.5-49.55-6.9-70.39l0.7-2.49-2.5-0.11c0 0.02-0.1 0-0.1 0h0.1c0-0.02-0.1-0.07-0.4-0.25-0.4-0.33-1.5-0.81-2.6-0.77zm70.8 25.02-1.9 0.05-0.1 1.9c0 2.49 0.9 4.55 2.3 5.86s3.1 1.95 4.7 2.48c1.6 0.52 3.1 0.95 4.2 1.48 1 0.53 1.6 1.05 1.9 1.89 28 103.75-31.2 183.27-110.6 206.39l-2.6 0.75 1.5 2.25c2.1 3.33 1.5 6.51 0.6 9.87-0.5 1.68-1.1 3.33-1.4 5.01s-0.3 3.61 0.8 5.22l1 1.36 1.5-0.76c3.8-1.86 5.6-5.55 6.2-9.32 0.4-3.1 0-6.28-0.7-9.2 20.5-7.19 39.5-16.78 58.9-31.67 8.4-6.52 15.3-15 24.8-20.88 8.9-5.55 22.2-12.77 31.9-12.7 6.2 0.04 10.8 2.61 15.1 6.25 4.2 3.53 8 8.04 12.2 11.88 5.3 11.26 4 21.5 1.5 32.53-2.6 10.9-6.3 22.44-5.7 35.63-0.6 0.78-2.7 2.02-4.9 3.43-1.2 0.74-2.4 1.59-3.2 3.04s-0.7 3.46 0.3 5.2l0.9 1.59 1.6-0.74c4.8-2.11 8.5-4.97 12.2-7.01s7.4-3.37 12.8-2.82l2.6 0.26-0.4-2.59c-0.3-1.97-1.8-3.49-3.4-4.15-1.5-0.67-3.3-0.76-5-0.7-2.3 0.08-4.5 0.46-6.3 0.79 1.9-32.78 18.7-57.69 37.1-77.15 14-10.78 26.9-22.46 40.9-33.89 17-13.87 31.8-31.67 50.6-40.74l1.9-0.95-1.1-1.86c-3.9-6.67-9.2-11.35-13-17.09l-3-4.58-0.7 5.44c-1.7 14.45-4.5 22.04-12.5 30.9-9 10.08-24.9 20.18-39.8 32.81-8.6 7.35-16 15.25-24 21.12s-16.5 9.75-27.6 9.4c-19.5-0.62-29.6-9.55-35-23.29-5.5-13.73-5.7-32.43-4.1-51.54 2.6-29.88 2.4-59.57-5-84.73l-0.5-1.52-1.6 0.1c-3.2 0.19-4.8-0.8-6.9-2.12-2.2-1.32-4.9-3-9-2.88zm224 114.94c-0.7-0.01-1.4 0-2.1 0.04l-1.8 0.12-0.1 1.76v0.04-0.04c0 0.02-0.1 0.08-0.2 0.33-0.4 0.45-0.8 1.5-0.8 2.61 0-0.09 0-0.19 0.1-0.28l-0.1 0.8v-0.52c-4.2 17.08-15.5 24.89-27.3 35.7-25.6 23.34-47 56.16-54.6 97.1-3.1 16.27-4.3 34.52-11.6 43.03-6.7 7.39-16.2 10.98-27.4 13.34s-24.1 3.43-37.5 6.02c-13.7 2.67-25 8.49-35.9 13.92-11 5.44-21.5 10.5-33.9 12.06-14.3 1.79-24.9 0.57-36.5-2.31 5-8.15 5.8-18.49 6.2-28.99 0.4-11.61 0.2-23.52 3.4-33.06 1.5-4.21 3.9-7.14 6.4-10.22 2.5-3.09 5-6.41 5.7-11.12l0.3-2.11-2.1-0.19c-2.2-0.19-4.1 0.63-5.7 1.85-1.5 1.22-2.8 2.81-3.9 4.5-1.2 1.82-2.3 3.72-3.4 5.46-0.3-2-0.6-3.91-1-5.92-0.7-3.63-1.9-7.22-4.9-9.49l-2.5-1.89-0.7 3.06c-0.9 4.31 0 8.71 1.2 13.03 1.1 4.24 2.4 8.42 2.7 12.27-4.3 12.73-5 26.05-6.3 38.08-1.4 12.21-3.4 22.97-10.2 30.72-10.7 12.31-28.7 13.95-48.9 18.36-24.4 5.35-45.49 17.8-71.62 18.95-22.2 0.98-37.73-1.95-53.3-6.91-4.32-1.37-8.66-3.88-13.1-5.86s-9.14-3.47-14.02-2.16l-1.62 0.43 0.14 1.66c0.39 4.87 2.85 8.2 5.81 10.42 0.73 0.56 1.53 0.94 2.31 1.41-11.6 0.67-20.01 4.41-29.35 6.78 2.77-3.13 6.42-6.03 9.91-9.19 4.97-4.5 9.6-9.89 9.31-17.65l-0.07-1.82-1.81-0.11c-5.23-0.29-8.78 2.57-11.06 5.78-2.29 3.21-3.81 6.82-5.58 8.93-13.37 15.87-31.28 28.18-48.58 40.89-9.89-6.25-22.85-8.34-36.38-9.29-13.65-0.95-27.86-0.78-40.05-2.19-0.96-2.28-1.36-4.72-1.63-7.29-0.29-2.92-0.5-5.99-2.07-8.81l-0.55-0.99-1.14-0.03c-7.29-0.22-11.74 2.56-14.69 6.22-2.96 3.65-4.74 7.92-7.87 11.45-44.68 50.61-114.93 85.75-192.87 101.35-3.96 0.8-8.95 0.92-13.59 1.68-4.64 0.75-9.22 2.2-11.71 6.23l-1.48 2.4 2.75 0.6c5.97 1.32 12.62-0.03 18.92-1.45 4.98-1.12 9.74-2.25 13.52-2.49-1.43 2.73-3.7 5.33-5.97 8-2.97 3.49-6.04 7.2-6.04 11.99v2.81l2.66-0.92c6.34-2.21 9.91-7.2 12.79-12.16 2.78-4.8 5.11-9.63 8.54-12.87 27.9-3.94 52.72-14.15 73.7-21.98 24.43-9.12 45-18.5 65.28-30.14 7.91-4.53 18.02-9.77 26.23-16.15 9.13-7.09 17.68-15.79 24.31-17.65 6.32-1.77 22.93-2.47 38.79-1.78 7.93 0.34 15.75 1.01 22.15 1.97 6.41 0.97 11.51 2.37 13.46 3.58 3.93 2.45 5.14 5.88 6.49 9.95 1.35 4.08 2.78 8.82 7.43 12l1.07 0.73 1.1-0.67c2.55-1.54 3.39-4.34 3.85-6.94 0.43-2.43 0.59-4.86 0.99-6.83 17.07-18.4 39.5-35.41 71.27-37.94 24.23-1.93 50.86 3.78 76.97 2 23.84-1.62 42.9-11.61 60.3-16.05 10.2-2.59 20.7-3.34 31-6 16.1-4.13 28.9-13.38 39.1-20.86 10.8 1.62 25.8 3.52 40.7 1.91 22.8-2.48 37.9-16.37 59.4-24.1 15.3-5.48 33.6-6.19 49.6-9.16 8.1-1.49 15.5-3.55 21.7-7.24 4.3-2.5 7.8-5.86 10.6-10.14 0.8 4.75 2.5 9.15 5.2 12.51 4 5.05 10.3 7.7 17 5l1.1-0.48 0.1-1.26c0.4-7.07-1.9-11.88-4.1-16.27-2.3-4.4-4.5-8.43-4.9-14.96-0.4-6.47 0.3-13.83 1-20.67 6.4-61.28 44.4-113.97 99.4-125.23l1.4-0.29 0.2-1.41c0.8-6.32-1.6-10.07-3.2-13.2l-0.6-0.99-1.1-0.07c-4.5-0.27-8.7 1.08-12.3 2.42-1.5 0.57-2.8 1.09-4.1 1.54 0.8-1.32 1.6-2.65 2.4-4.13 1.6-2.84 2.9-6.26 2.9-10.84v-1.67l-1.6-0.29c-3.5-0.61-6.8-1.98-11.4-2.07zm-209.1 10.03c0 1.48 0 2.94 0.2 4.3 1.3 9.48 6.5 17.57 8.3 24.64-10.3-0.21-19.2 3.9-27.6 7.53 7.8-10.65 14.8-22.22 19.1-36.47zm-843.72 38.38c-4.13 0.01-8.23 0.75-11.59 1.7-14.54 4.13-34.25 15.18-45.51 22.22-3.4 2.14-5.74 4.56-7.83 6.38s-3.82 3-6.36 3.33c-8.26 1.08-15.93-3.52-24.19-8.93-8.25-5.4-16.98-11.55-27.45-12.08-7.98-0.4-15.09 1.05-21.6 2.22-6.5 1.17-12.38 2.03-18.08 0.82-2.09-0.44-3.7-1.56-5.85-2.77s-4.88-2.39-8.63-2.27l-2.2 0.08 0.29 2.19c1.62 12.07-1.96 19.91-8.08 25.99-6.13 6.07-14.99 10.23-23.71 13.89l-0.52 0.22-0.32 0.45c-0.98 1.36-1.25 3.03-0.94 4.4 0.31 1.36 1.01 2.44 1.71 3.41 1.37 1.92 2.66 3.6 2.83 4.56-0.27 14.3-6.96 25.14-14.361 35.94-7.437 10.86-15.606 21.63-17.599 35.57-3.315 23.21 8.555 43.19 20.734 52.85 10.886 8.63 26.076 12.8 35.966 20.97 1.54 1.28 2.62 2.99 4.1 4.82 1.47 1.82 3.49 3.71 6.65 4.57l2.44 0.66 0.08-2.53c0.2-6.01-3-10.44-6.92-13.57-3.92-3.12-8.61-5.25-12.09-7.23-10.92-6.23-23.07-12.59-31.696-21.53-8.63-8.95-13.892-20.28-11.307-37.43 2.039-13.52 11.144-24.04 19.163-36.4 7.76-11.97 14.23-25.89 11.07-45.43 9.28-2.15 16.24-6.84 21.4-13.1s8.62-13.98 11.59-22.05c10.65 2.84 20.91 1.67 30.31 0.49 9.94-1.25 18.88-2.3 26.69 1.05 11.51 4.94 21.49 16.39 34.17 20.68 2.56 5.72 1.08 16.01 0.61 25.45-0.25 4.86-0.18 9.51 1.41 13.42 1.6 3.91 5.05 6.9 10.33 7.59l4.15 0.54-2.18-3.57c-9.28-15.2-6.63-29.33 1.15-41.52 7.76-12.16 20.81-22.08 31.93-27.58 6.38-1.41 11.98-4.92 17.86-6.96 2.87-0.99 6.48-1.43 10.05-2.29 3.57-0.85 7.23-2.19 9.83-5.32l2.08-2.5-3.17-0.72c-1.51-0.35-3.07-0.55-4.64-0.63-0.59-0.03-1.18-0.05-1.77-0.05zm903.12 8.63c-1.8 2.62-3.7 5.46-5.6 8.45-2.5 3.79-5.2 7.37-7.9 10.52-0.4-7.79-2.6-13.95-6-18.9 6.3 1.11 13.4 1.27 19.5-0.07zm-1073 87.98-0.09 1.9c-0.22 4.19-1.57 6.93-3.57 9.26-1.99 2.33-4.72 4.21-7.58 6.2l-2.1 1.46 1.93 1.68c13.76 12.07 24.03 28.17 38.04 41.04-3.75 10.15-3.86 18.51-1.42 25.49 2.55 7.29 7.64 13.01 13.35 18.18 11.43 10.35 25.3 18.77 29.42 32.36l3.91-0.47c0.51-9.02-2.94-15.91-7.9-21.45-4.95-5.53-11.35-9.88-17.1-14.4-5.74-4.53-10.79-9.19-13.38-15.07-2.42-5.5-2.72-12.28 0.66-21.61 5.12 1.77 11.64 4.43 18.54 6.2 7.67 1.95 15.74 2.76 22.2-1.05l5.03-2.97-5.79-0.74c-19.73-2.51-36.27-8.01-47.93-18.04-11.67-10.03-18.69-24.58-19.32-46.03l-0.05-1.94h-6.85zm-68.719 99.45-4.992 1.64c-7.904 2.59-13.425 8.56-16.689 15.91-3.265 7.35-4.381 16.11-3.709 24.8 0.672 8.68 3.137 17.3 7.236 24.36 4.099 7.05 9.894 12.6 17.225 14.74l3.209 0.94-0.692-3.27c-0.798-3.78-3.325-6.14-5.775-8.01-2.45-1.88-4.892-3.45-6.563-5.75-5.9-8.12-9.724-22.79-7.642-35.5 0.888-5.42 3.338-9.31 6.357-13.11s6.629-7.44 9.397-12.2l2.638-4.55zm1314.9 15.1-6.4 3.71c-25.4 14.78-56.9 23.47-97 23.73l-0.4 3.96c26 5.04 50.5-1.38 70.1-8.07 11-3.79 24.6-7.16 30.1-16.91l3.6-6.42zm62.6 13.19-0.7 1.25c-6.4 11.01-20.8 22.29-38.1 30.58-17.2 8.28-37.1 13.63-54.2 13.41-12-0.15-23.3-5.41-36.4-2.96l-6.5 1.22 6.1 2.58c25.3 10.68 53.5 9.04 78.6 1.3 24.5-7.54 46-20.83 59.5-34.61 13.4 9.11 32.2 8.01 50.5 6.88 18.9-1.17 37.3-2.24 49 6.22l2.9 2.11 0.3-3.6c0.1-2.21-0.7-4.21-2-5.8-1.3-1.58-2.9-2.85-4.7-4.01-3.6-2.3-7.7-4.18-10.1-5.95l-0.4-0.28-0.5-0.07c-15.2-2.21-28 1.62-39.4 1.98-19.6 0.62-34.8-6.39-52.5-9.96l-1.4-0.29zm-215.8 14.11c-0.5 0.02-1 0.07-1.5 0.17l-1.7 0.3v1.73c0.1 0.85-0.1 1.05-0.6 1.84l-0.1 0.11-0.1 0.11c-5.6 11.66-14.9 19.38-26.4 25.62s-25.2 10.93-39.5 16.38c-56.6 21.68-132.3 46.28-197.16 43.87-2.73-0.1-9.04-1.52-14.83-1.7-2.9-0.09-5.74 0.1-8.2 1.14-2.46 1.03-4.52 3.2-5.02 6.23l-0.12 0.73 0.39 0.63c1.4 2.32 3.81 3.44 6.21 3.77s4.93 0.05 7.47-0.28c3.82-0.5 7.63-1.02 10.52-0.57-1.55 1.66-3.46 3.57-5.07 5.85-1.14 1.63-2.09 3.49-2.05 5.64 0.04 2.14 1.19 4.3 3.35 6.09l1.23 1.02 1.26-0.97c4.33-3.33 7.01-7.3 9.59-10.44 2.57-3.14 4.87-5.38 8.61-6.19 18.62-4.01 38.72-3.2 57.82-5.98 34-4.92 70.2-17.35 101.4-28.08 22.2-7.66 48.4-17.08 70.2-27.07 9.6-4.45 16.2-9.4 22.3-9.82 2.4-0.17 6.1 0.91 9.9 1.72 3.7 0.81 7.9 1.4 11.2-1.14l0.5-0.45 0.2-0.71c0.5-2.67-0.7-5.17-2.7-6.44-1.9-1.27-4.3-1.83-6.9-2.27-3.9-0.67-7.9-1.16-10.8-1.86 3.3-3.82 7.2-7.66 8.4-14.51l0.2-1.17-0.9-0.73c-1.3-1-3.1-2.27-5.7-2.53-0.5-0.04-0.9-0.06-1.4-0.04zm-1131.6 5.38c-1.01 0.02-2.01 0.06-3 0.14-3.96 0.32-7.673 1.14-10.669 2.74-2.995 1.61-5.346 4.2-5.775 7.63l-0.326 2.6 2.595-0.38c3.048-0.43 5.73-1.96 8.344-3.3 2.611-1.34 5.131-2.5 7.521-2.68 11.98-0.92 18.42 4.64 24.24 12.48 5.82 7.85 10.49 17.98 18.26 25 5.77 5.22 13.07 6.36 20.23 6.99 7.16 0.62 14.3 0.79 20.32 3.37 1.4 0.59 3.82 2.41 5.98 4.46s4.18 4.37 5.15 5.81c0.64 0.96 1.58 4.13 2.77 7.18s2.79 6.43 6.24 7.6l2.75 0.93-0.11-2.9c-0.52-14.29-11.57-28.72-25.55-31.87-7.07-1.6-13.05-1.58-18.23-2.17s-9.48-1.68-13.92-5.41c-5.6-4.7-8.77-10.23-12.34-16.16-3.57-5.94-7.55-12.25-14.71-17.88l-0.14-0.11-0.15-0.08c-4.31-2.3-10.35-3.67-16.44-3.94-1.02-0.05-2.03-0.06-3.04-0.05zm1302.2 80.27c9.7 0.1 19.2 0.99 28.7 3.41 8 2.03 17 5.59 24.4 9.89 7.5 4.3 13.3 9.44 15.3 13.96 0.9 2.31 1.7 6.44 1.8 10.46 0.2 4.03-0.2 8.07-0.9 10.09-2.8 7.93-11.8 13.36-24.1 17.26-12.3 3.89-27.7 6.19-42.3 8.42-26.9 4.1-61 7-85.8 8.98-46.8 3.73-91.1 0.68-131.2 8.03-39.2 7.16-70.7 20.88-98.6 43.14-9.1 2.05-16.2 6.06-23.3 9.71-5-1.51-10.2-1.96-14.1-3.06-2.1-0.59-3.7-1.35-4.8-2.38-1-1.03-1.7-2.32-1.8-4.58-0.2-1.83 0.9-4.27 3.2-6.95 2.2-2.68 5.5-5.51 9.2-8.2 7.3-5.38 16.1-10.22 21.5-12.94 42.3-21.65 97.2-33.58 147.5-44.82 34.9-7.81 71.5-15.4 108.8-19.97 38-4.66 78.3-9 111.2-17.03l-0.7-3.93c-105.6 12.57-228.6 28.07-324.4 62.09-15.9 5.62-29.7 10.39-46.3 19.11-5.7 2.98-14.4 7.26-22 12.24-3.8 2.49-7.3 5.15-10 8-2.7 2.84-4.7 5.92-5 9.33-0.7 6.62 2.3 11.8 7.2 14.73 3.3 1.93 7.3 2.95 11.8 3.34-16.3 8.47-38.2 8.39-60.7 4.16-7.07-1.33-13.37-1.7-18.88-2.98-10.88-2.54-25.78-10-37.69-14.9-6.41-2.64-14.33-5.13-20.83-8.03-6.49-2.91-11.18-6.31-11.99-9.6-0.91-3.73-0.46-6.82 0.91-9.71 1.36-2.9 3.72-5.57 6.67-8.05 5.89-4.96 14.07-9.04 20.53-13.06 14.17-8.79 25.22-17.73 37.7-22.84 30.78-12.61 63.58-20.81 99.48-25.87 35-4.92 72.2-5.61 115.9-9.99 38-3.8 71.5-14.03 106.2-20.02 16.8-2.89 35.5-4.27 55.7-4.97 18.4-0.63 35.4-2.65 51.7-2.47zm18.2 4.47c-73.3 1.42-138.4 15.06-205.9 30.64l-1.9-1.29c-3.6-2.44-7.2-2.92-10.4-2.67-3.3 0.25-6.2 1.09-8.9 1.33-56.8 4.79-127.7 26.21-176.6 46.13-11.7 4.76-26.25 10.24-37.25 18.4-5.5 4.08-10.13 8.87-12.96 14.65-2.82 5.79-3.75 12.57-1.98 20.25l0.15 0.66 0.53 0.43c7.6 6.28 18.21 9.07 30.01 10.44l6.2 0.72-4.6-4.19c-4.5-4.1-11.32-5.02-16.92-6.74-2.81-0.86-5.3-1.88-7.09-3.28-1.79-1.39-2.94-3.07-3.35-5.79-0.66-4.37 0.63-8.21 3.34-11.9s6.86-7.11 11.62-10.15c9.5-6.07 21.4-10.61 28.8-13.81 55-23.68 119.1-42.3 184.7-49.38-6.6 1.55-13.2 3.03-19.9 4.6-34.4 7.98-69.4 17.05-101.4 32.14-15.2 7.17-27.1 14.19-42.2 24.13-6 3.88-14.6 8.89-21.8 14.65-7.2 5.77-13.3 12.37-13.1 20.06 0.1 7.28 3.9 13 9.9 16.34s14.1 4.51 23.3 3.6l7.5-0.74-6.9-3.07c-5.4-2.39-12.4-3.05-17.9-4.99-2.7-0.97-4.9-2.22-6.5-3.92-1.5-1.71-2.5-3.87-2.4-7.25 0-2.21 1.2-4.93 3.5-7.83s5.6-5.92 9.2-8.82c7.3-5.8 16-11.11 21.4-14.69 15.2-10.12 28.3-17.02 43.7-23.84 50.9-22.6 104-27.98 159.7-43.9 53.6-15.31 117.1-19.34 176.7-26.93l-0.3-3.99zm-512.98 9.92v0.09h-0.05c-1 0.05-1.51 0.67-1.74 1-0.22 0.33-0.3 0.57-0.38 0.8-0.15 0.45-0.24 0.86-0.32 1.25-0.04 0.21-0.07 0.34-0.11 0.51-20.7 9.34-43.4 23.23-66.7 27.46-18.01 3.27-34.08-0.11-49.69-2.94-14.79-2.68-29.26-4.78-44.19 0.24-0.23-1.74-0.55-3.38-0.83-4.77-0.34-1.64-0.39-2.86-0.2-3.91 0.95-0.17 2.01-0.16 3.44-0.31 0.94-0.1 2.11-0.42 3.04-1.3s1.46-2.12 1.76-3.66l0.09-0.44-0.11-0.44c-1.08-4.16-4.18-6.75-7.8-7.75-3.63-1-7.79-0.73-12 0.07-8.42 1.6-17.06 5.42-21.03 7.39l-1.1 0.55-0.01 1.23c-0.01 2.49 0.8 4.57 2.15 6.01 1.35 1.45 3.07 2.25 4.78 2.83 3.07 1.03 6.13 1.59 8.17 2.55 0.13 1.2 0.43 2.23 0.69 2.82 0.3 0.67 0.4 1.06 0.32 1.77-30.53 26.1-69.73 56.51-114.67 70.1-21.63 6.55-49.72 10.81-74.26 8.92-21.43-1.65-39.79-9.5-57.47-15.88l-3.14-1.13 0.48 3.3c1.02 6.97-1.53 11.81-5.25 16.62-3.71 4.82-8.63 9.32-11.56 15.19l-1.98 3.99 4.3-1.16c7.02-1.91 11.36-6.72 14.57-12.01 2.89-4.77 5.09-9.9 7.74-14.31 54.6 28.4 132.7 8.59 178.06-14.83 13.57-7.01 25.06-14.2 37.17-22.1 12.28-8.01 24.7-17.07 36.77-22.87 14.42-6.94 36.08-8.79 54.48-4.75 9.21 2.02 17.59 5.5 23.9 10.38 6.31 4.89 10.54 11.09 11.76 18.87 1.51 9.62-0.99 20.62-5.73 29-4.73 8.38-11.53 13.88-18.23 13.69-2.46-0.07-2.91-0.57-4.12-1.59-1.22-1.01-3.07-2.59-6.5-3.36l-1.1-0.25-0.78 0.82c-1.93 2.01-2.99 4.1-3.12 6.18s0.69 3.95 1.85 5.44c2.13 2.75 5.36 4.58 8.02 6.07 0.54 2.51 1.11 4.7 1.82 6.26 0.8 1.79 1.75 3.13 3.15 3.88s3.12 0.56 4.38-0.09 2.28-1.65 3.28-2.83c2-2.35 3.88-5.53 5.68-8.59 1.81-3.06 3.56-6.02 4.92-7.67 7.6-9.17 16.32-11.26 22.94-15.26 4.21 0.34 7.3-0.84 9.6-2.33l1.14-0.74-0.26-1.33c-0.8-3.99-2.96-6.49-4.88-8.34-1.92-1.84-3.48-3.12-4.22-5-3.59-9.1-1.26-18.47 3.43-26.87 4.69-8.39 11.74-15.61 16.96-19.84 17.52-14.18 43.92-22.45 57.86-31.89l-1.33-3.65c-4.19 0.43-7.05-0.84-11.77-1.02l-2.07-0.07zm-2.64 3.88c-0.02 0.06-0.04 0.17-0.05 0.22-0.02 0.1-0.05 0.16-0.02 0.1 0.01-0.03-0.03-0.15 0.07-0.32zm245.52 14.97-5.9 0.23c-56.9 2.23-120.3 18.12-166.67 36.13-16.16 6.28-35.68 14.03-44.63 22.4-4.87 4.56-7.55 9.3-8.22 13.96-0.68 4.65 0.69 9.1 3.41 12.84 5.45 7.49 16.06 12.49 27.98 13.65l5.04 0.49-3.35-3.8c-4.48-5.1-11.64-6.52-17.22-8.7-2.8-1.1-5.18-2.34-6.77-3.99-1.59-1.64-2.54-3.64-2.51-6.97 0.02-1.5 1.02-4.07 2.51-6.47 1.49-2.41 3.41-4.72 4.87-6.09 15.01-14.13 49.53-25.27 79.26-34.54 31.2-9.75 65.1-17.01 94.5-19.92 4.9-0.48 11.2-0.3 17.2-0.72s11.8-1.35 15.9-4.73l4.6-3.77zm292 14.23c-106.1 3.47-209.4 13.84-294.4 43.07v0.01c-0.1 0.01-0.1 0.01-0.1 0.02l1.2 3.81c83-24.83 193.4-35.68 293.5-42.92l-0.2-3.99zm19.6 18.34c4.7 4.56 6.2 8.83 5.8 13.08-0.5 4.52-3.2 9.23-7.4 13.76-8.2 9.06-21.7 17.1-29.9 22.1-45.1 27.25-102.1 51.59-153 67.6-28.9-10-60.2-18.31-93.2-24.02 96.3-5.33 178.2-25.14 241.3-64.17l5.5-3.42-6.5-0.27v-0.01 0.01c0-0.02-0.1-0.08-0.3-0.26-0.5-0.37-1.8-0.95-3.1-0.72l-1.5 0.25-0.1 0.73c-0.2 0.01-0.5 0.03-1 0l-0.7-0.05-0.6 0.43c-15.3 11.25-35.3 19.91-56.5 27.73-35.4 13.05-73.3 21.71-114.6 27.9-20.7 3.11-42.9 2.37-64.2 8.04l0.6 3.5c-36.2-6.14-74.6-8.92-114.7-6.97 33.4-15.43 59.2-37.01 100.2-48.67 43.7-12.45 94.3-9.37 148.5-12.92 48.3-3.16 107.6-7.03 145.4-23.65zm-1.1 12.55-0.7 0.6c-51.1 45.03-124.8 68-203.1 86.55l0.7 3.92c0.1-0.01 0.1-0.02 0.2-0.03 79.6-12.97 152.8-41.08 205.8-84.39l0.8-0.7-0.1-1.11c-0.1-0.29 0-1-0.1-1.9-0.1-0.45-0.2-1.01-0.6-1.61-0.4-0.59-1.3-1.1-2-1.21l-0.9-0.12zm-56.3 5.08c-0.1 0.01-0.3 0.03-0.4 0.05l-0.3 0.04-0.2 0.08c-66.1 27.33-152.3 53.85-240.3 57.85-2 0.09-5.4-0.56-8.8-0.55-3.4 0.02-7.3 0.91-9.7 4.41l-2.3 3.33 4-0.2c102.4-4.89 187.2-27.4 261.7-60.16l-0.7-3.82s0.2 0.12-0.3-0.26c-0.5-0.32-1.5-0.8-2.7-0.77zm-57.4 4.06c-17.4 3.21-32.5 5.65-49.2 10.03-13.1 3.44-26 8.25-38.9 10.97-35.5 7.51-74.3 13.41-110.6 13.96l-0.1 3.99c75.4 4.69 138.3-19.71 199.6-35.05l-0.8-3.9zm117.1 10.61c18.7 16.65 30.6 48.3 17.4 76.5-0.9 1.86-2.5 3.66-4.2 5.56-1.8 1.9-3.6 3.89-4.8 6.44-4.2 9.12-5.4 19.21-7.7 27.92-2.3 8.8-5.5 15.9-13.4 20.1-10.1 5.4-22.9 5.5-36.1 3.4-13.1-2.2-26.5-6.5-37.5-9.5-15.1-4.2-30.4-7.4-39.6-11.9-17.7-8.62-32.7-22.42-51.3-30.9 66.8-21.34 128.5-47.89 177.2-87.62zm-2.2 23.39c-14.2 3.07-34 8.86-49.2 14.06l0.8 3.88c19.2-2.03 35.6-6.93 49.7-14.2l-1.3-3.74zm3.5 18.6-4.7 1.45c-21.3 6.6-47.4 8.78-71.7 12.93l0.1 3.96c15.4 1.81 30-1.47 44.5-4.01 5.2-0.91 11.5-1.75 17-3.1 5.4-1.35 10.3-3 12.5-6.93l2.3-4.3zm-511.49 8c3.89 1.32 7.35 3.35 11.58 4.87-1.05 0.35-2.11 0.69-3.26 1.04-3.13 0.98-6.56 2.21-8.56 5.37l-0.89 1.41 1.22 1.13c1.2 1.1 2.81 1.61 4.19 1.4 1.39-0.21 2.45-0.88 3.44-1.56 1.96-1.37 3.74-2.94 5.29-3.38 16.05-4.64 26.08 1.48 35.38 10.06 9.2 8.33 17.2 19.09 28.4 23.47 4.8 16.15 10 31.82 14.2 48.42-7.1 3.1-15 5.3-22.6 5.4-8.1 0-15.6-2.1-21.6-7.7-2.9-2.8-7.1-9.9-11.76-15.8-4.49-5.8-11.78-14.74-18.53-23.64-6.76-8.91-13-17.87-15.21-22.94-3.16-7.24-3.07-19.09-1.29-27.55zm128.59 7.17c31.6-0.24 66.7 4.99 91.5 9.16 33.6 5.66 64.3 10.56 91.6 20.89 23.6 8.91 43.9 24.37 67.4 35.81-60.8-23.32-131.8-36.26-195-56.58l-0.6-0.19-0.6 0.17s-0.5 0.01-1.2 0.2c-0.4 0.1-0.9 0.26-1.4 0.74-0.5 0.47-0.8 1.27-0.9 1.93v1.42l1.3 0.5c55.5 20.94 127.3 32.55 183.1 52.01 7 2.5 14.7 8.6 23.9 7.1l6.2-1c11.3 3.9 23.9 6.7 36 9.9 22.2 6 42.3 11 66.1 6.4 1.5 4.6 0.7 8.2-1.2 11.4-2.2 3.7-6 6.8-9.6 9.7-23.4 18.7-53.7 35-96.7 32.6-33.2-1.8-69-11.6-102.6-18.9-32.1-7.1-63.6-19-90.7-30.9-55.8-24.7-108.2-52.66-144.6-86.42 8.2 1.93 16.6 3.43 27.1 2.23 6.8-0.78 11.4-4.07 16.1-5.02 10.5-2.13 22.4-3.06 34.8-3.15zm-101.03 5.69c-0.34 0.01-0.68 0.02-1.01 0.05-2.71 0.21-5.4 1.11-7.83 2.35-4.88 2.48-8.98 6.34-11.03 10.14l-2.04 3.78 4.21-0.87c5.25-1.08 8.54-4.09 11.73-6.35 3.18-2.27 6.16-3.97 11.73-3.61l1.14-3.72c-2.18-1.28-4.53-1.8-6.9-1.77zm486.53 4.49-0.3 0.09c-35 10.86-87.2 7.69-126.5 9.91l-0.1 3.99c38.4 3.97 87.5 2.12 120.7-6.04-0.2 0.03 0.9-0.06 2-0.08 1.1-0.01 2.4-0.04 3.6-0.23 1.3-0.2 2.7-0.45 3.7-1.76 0.6-0.65 0.9-1.62 0.8-2.5s-0.4-1.66-0.9-2.45l-0.6-0.93h-1.1-1.3zm-387 0.1-1.9 3.45c10.9 9.02 28.4 11.21 43.6 16.35 80.7 27.28 155.3 57.58 248.3 70.08 14.5 1.9 29.2 5.7 44.4 5l0.2-4c-63.3-9.4-120.1-19.8-173.6-37.9-54-18.21-107.8-36.12-161-52.98zm-87.3 8.86c-0.6 0.01-1.3 0.03-2 0.07-1.75 0.1-3.52 0.3-5.24 0.61-6.88 1.24-13.19 4.14-15.88 9.46l-2.96 5.84 5.71-3.19c6.5-3.63 20.57-7.78 32.87-6.76l0.9-3.86c-4-1.5-8.7-2.21-13.4-2.17zm60.7 0.25-0.1 2.73c0 1.19 0.3 2.34 1 3.23 0.6 0.88 1.5 1.41 2.4 1.72 79.1 28.29 156 63.09 246.2 81.09 30 5.9 61.3 11.4 94.4 11l0.2-4c-135.3-10-233.5-57-341.5-94.87l-2.6-0.9zm278 10.79-0.4 3.97c34.6 5.87 81.5 17.46 118.8 6.95l-0.8-3.9c-39.4 5.42-81.7-5.13-117.6-7.02zm-284 1v1.94c-0.1 1.19 0.2 2.34 0.9 3.23 0.5 0.73 1.2 1.18 1.9 1.5 58.1 38.21 135.7 60.21 212.6 80.21 37.1 9.7 75.7 21.8 115.8 15.1l-0.3-4c-46.9 1.3-80.2-8.9-117.5-18.9-26.1-7.1-52.1-13.2-75.9-20-49.2-14.1-93.2-35.68-131.5-58.79l-0.5-0.29h-5.5zm-41.7 1.37c-0.7-0.01-1.3-0.01-2 0.02-1.7 0.06-3.4 0.24-5.1 0.52-6.7 1.15-12.94 4.02-15.96 9.06l-2.92 4.87 5.33-1.96c6.75-2.5 21.25-7.97 31.95-5.92l1.3-3.74c-3.7-1.88-8.1-2.78-12.6-2.85zm33 10.71c63.4 36.9 137.1 75.1 226.2 92.9 42.5 8.4 93.2 20.9 133.9 4.6-4 10.6-10.7 18.9-15.1 30.1-34.3 28.6-86.7 58.5-150.3 55.3-24.8-1.3-44.2-9.1-56.5-24.3l-0.4-0.4-0.6-0.2c-17.5-5.4-30.4-19.1-44.4-29.7-14.3-10.9-27.6-21.9-39.7-34.8h-0.1c-25-23.9-43.9-53.7-53-93.5zm295.4 3.91-0.3 0.08c-0.8 0.22-1.7 0.81-2.1 1.64-0.4 0.84-0.5 1.72-0.4 2.56l0.1 0.14v0.13c0.2 0.78 0.8 1.64 1.6 2.08 0.8 0.4 1.6 0.46 2.4 0.38h-0.1l0.3-0.02c-0.1 0.01-0.2 0.01-0.2 0.02 18.8-0.32 35.4 4.78 52.3 8.98s34.2 7.5 54 3l-0.5-4c-40.6 2.6-66.8-13.22-106.8-14.98l-0.3-0.01zm-326.3 2.81c-3.4 0.09-6.7 0.62-9.6 1.94-2.8 1.31-5.1 3.61-5.8 6.84l-1.4 6.2 4.7-4.3c3.3-3 8.7-3.7 14.4-3.6s11.4 1 15.7 0.1l5.7-1.24-5.3-2.55c-4.3-2.04-11.5-3.57-18.4-3.39zm46.3 11.38zl2.4 5.6c2.1 4.8 7.6 8.6 14.1 12.4 6.4 3.9 13.9 7.5 19.8 10.6 76.3 40 167 79.2 277.9 73.2h0.1l-0.1-4c-133.1-1.4-224.3-44.5-308.9-94.7l-5.3-3.1zm-31.9 3.2c-1.9 0-3.8 0.2-5.6 0.7-4.8 1.1-9.3 3.8-11.1 8.2l-1.5 3.8 3.9-1.2c2.5-0.7 5.9-2.2 9.8-3.5 3.9-1.4 8.3-2.4 12.6-2.4l0.9-3.8c-2.1-1-4.6-1.6-7.1-1.8h-1.9zm57.7 32.6 4.2 3.5c15.1 12.9 40 23.2 61.4 32.3 59 25.3 134.7 51.5 212.9 46.2l-0.1-4c-105.8-2-198.1-36-268.9-77.7l-0.5-0.3h-9zm-29.2 1.9c29.2 42 67.8 74.5 109.8 103.5-2.7 3.3-6.8 5.7-11.6 7.3-5.5 1.8-11.9 2.4-17.5 2.3-30.8-0.8-50.9-27.1-55.1-55.3l-0.1-1.2-1.1-0.4c-8.7-3.2-17.2-7.5-23.1-13.7-5.8-6.2-9.2-14.3-7.7-26.1 0.8-6.1 3.6-10.6 6.4-16.4zm54.1 24-0.7 0.1c-0.3 0.1-1 0-1.9 0.1-0.5 0.1-1 0.2-1.6 0.6-0.6 0.5-1.1 1.3-1.2 2l-0.2 1.2 1 0.7c10.7 8 24.8 16.2 39.3 23.2 12.5 6.1 26.3 12 39.1 17.1 27.1 10.7 58.1 22.3 88.9 20.1l0.1-4c-66-8.3-116.2-32.3-162.2-60.7l-0.6-0.4zm11.3 24.1-0.7 2.5c-0.2 1-0.3 2 0.1 2.8 0.4 0.9 1 1.4 1.4 1.6 0.3 0.2 0.4 0.3 0.4 0.3l0.1 1 1 0.6c13.4 6.9 27.6 15.4 43.2 22 14.6 6.3 31.6 14.8 48.9 13.2l0.3-4c-35.9-7.7-64.1-23.2-92.5-38.7l-2.2-1.3zm-35.4 12h-0.6l-2 0.3 0.3 2c2.2 14.9 9.1 28.1 19.8 36.7 10.7 8.5 25.3 12.4 42.5 9l-0.5-4c-15.9 1.3-28.2-2.6-37.4-10-9.3-7.4-15.5-18.4-18.5-31.5-0.2-0.8-0.8-1.7-1.7-2.1-0.6-0.3-1.2-0.4-1.9-0.4zm-0.3 3.5v0.1-0.1zm18.7 5.5-3.7 1.2c0.9 8.5 6.1 15.5 12.5 20.2 6.3 4.8 13.7 7.4 19.7 6.6l0.4-3.9c-13.4-4.4-22.4-12.8-28.9-24.1z"/>
</svg>
